<svg width="35" height="35" viewBox="0 0 35 35" fill="none" xmlns="http://www.w3.org/2000/svg">
    <g clip-path="url(#clip0_1_434)">
        <path
            d="M17.5 35C27.165 35 35 27.165 35 17.5C35 7.83502 27.165 0 17.5 0C7.83502 0 0 7.83502 0 17.5C0 27.165 7.83502 35 17.5 35Z"
            fill="#EFE9E0" />
        <path
            d="M24.5 13.926C23.9849 14.1512 23.4313 14.3027 22.8503 14.371C23.4436 14.0214 23.8992 13.4672 24.1132 12.8068C23.5585 13.1307 22.9437 13.3661 22.2892 13.493C21.7659 12.9435 21.0187 12.6001 20.1927 12.6001C18.3383 12.6001 16.9756 14.3033 17.3944 16.0714C15.008 15.9537 12.8917 14.8281 11.4747 13.1175C10.7222 14.3883 11.0845 16.0507 12.3632 16.8926C11.893 16.8776 11.4497 16.7507 11.0629 16.5388C11.0314 17.8486 11.9852 19.0741 13.3665 19.3468C12.9622 19.4548 12.5195 19.48 12.0692 19.3951C12.4343 20.5183 13.4948 21.3355 14.7525 21.3584C13.545 22.2904 12.0237 22.7068 10.5 22.5299C11.7711 23.3321 13.2813 23.8001 14.903 23.8001C20.2358 23.8001 23.2487 19.3664 23.0667 15.3897C23.6279 14.9907 24.115 14.4928 24.5 13.926Z"
            fill="#243146" />
    </g>
    <defs>
        <clipPath id="clip0_1_434">
            <rect width="35" height="35" fill="white" />
        </clipPath>
    </defs>
</svg>