<svg width="35" height="35" viewBox="0 0 35 35" fill="none" xmlns="http://www.w3.org/2000/svg">
    <g clip-path="url(#clip0_1_437)">
        <path
            d="M17.5 35C27.165 35 35 27.165 35 17.5C35 7.83502 27.165 0 17.5 0C7.83502 0 0 7.83502 0 17.5C0 27.165 7.83502 35 17.5 35Z"
            fill="#EFE9E0" />
        <path
            d="M22.8305 11.3288C20.3077 11.1566 14.6888 11.1573 12.1695 11.3288C9.44161 11.515 9.12031 13.1628 9.10001 17.5C9.12031 21.8295 9.43881 23.4843 12.1695 23.6712C14.6895 23.8427 20.3077 23.8434 22.8305 23.6712C25.5584 23.485 25.8797 21.8372 25.9 17.5C25.8797 13.1705 25.5612 11.5157 22.8305 11.3288ZM15.4 20.3V14.7L21 17.4951L15.4 20.3Z"
            fill="#243146" />
    </g>
    <defs>
        <clipPath id="clip0_1_437">
            <rect width="35" height="35" fill="white" />
        </clipPath>
    </defs>
</svg>